<svg width="512" height="512" viewBox="0 0 512 512" fill="none" xmlns="http://www.w3.org/2000/svg">
<g clip-path="url(#clip0_391_3567)">
<circle cx="256" cy="256" r="256" fill="url(#paint0_linear_391_3567)"/>
<path fill-rule="evenodd" clip-rule="evenodd" d="M339.441 62.5312C325.857 65.5152 313.574 72.0512 303.068 81.8862L296.637 87.9062L292.854 84.4882C284.433 76.8802 273.84 73.3862 254.999 72.0032C245.537 71.3082 240.22 70.3352 233.121 68.0012C227.744 66.2332 220.448 64.6642 216.019 64.3222C201.445 63.1982 185.006 67.1062 175.397 73.9782C172.801 75.8352 168.646 77.4642 164.08 78.4162C148.014 81.7662 132.978 90.0632 120.437 102.5C110.557 112.298 105.119 121.29 103.052 131.246C102.03 136.168 101.614 136.71 96.7775 139.43C89.8195 143.341 76.2955 156.503 72.1155 163.431C70.2535 166.516 67.3595 172.969 65.6835 177.77C62.8355 185.931 62.6315 187.477 62.5495 201.5L62.4625 216.5L58.7155 224.218C48.9205 244.394 50.1045 268.484 61.7335 285.608C63.9645 288.893 66.5115 292.18 67.3945 292.913C68.6545 293.959 68.9995 296.219 68.9995 303.439C68.9995 316.044 70.4625 323.108 75.0165 332.5C82.2345 347.384 92.1665 357.373 107.365 365.035C111.691 367.216 115.782 369 116.457 369C117.131 369 118.241 370.913 118.924 373.25C126.367 398.72 155.694 417.204 188.999 417.417C201.965 417.5 210.924 415.378 222.452 409.496L230.811 405.231L239.059 410.658C269.975 431 293.548 441.861 318.311 447.172C330.712 449.832 354.436 450.303 365.499 448.11C395.21 442.218 419.151 424.932 431.316 400.588C441.149 380.912 443.952 364.486 440.426 347.208C436.999 330.416 425.828 314.9 412.499 308.418C407.031 305.759 405.612 305.508 396.499 305.593C385.386 305.697 378.452 307.716 371.222 312.954C366.458 316.405 360.999 326.535 360.999 331.925C360.999 336.547 364.204 342.532 369.123 347.096C372.178 349.931 372.994 351.414 372.977 354.096C372.945 359.036 369.81 365.186 365.522 368.721C360.131 373.164 354.668 374.388 343.203 373.721C333.042 373.131 323.796 370.58 310.999 364.837C302.973 361.235 273.999 344.865 273.999 343.931C273.999 343.557 276.192 338.132 278.871 331.875C283.055 322.107 292.789 293.911 297.643 277.5C298.456 274.75 300.246 269.288 301.621 265.363C304.027 258.491 304.294 258.159 308.809 256.435C318.466 252.747 339.192 238.996 353.999 226.452C384.395 200.702 403.741 168.786 408.602 136.371C412.331 111.512 406.875 92.1722 391.876 77.0742C378.921 64.0342 358.45 58.3562 339.441 62.5312ZM198.509 80.1092C190.857 81.6702 181.124 86.7792 175.953 91.9502C170.214 97.6902 166.942 105.709 166.241 115.76C165.409 127.691 169.759 135.459 178.648 137.914C183.71 139.311 185.999 141.71 185.999 145.616C185.999 149.576 182.786 152.998 179.06 153.005C170.96 153.021 158.75 144.383 154.263 135.462C149.815 126.617 148.856 112.445 152.081 103.194C152.713 101.381 152.985 99.6532 152.685 99.3532C152.385 99.0532 149.296 100.309 145.819 102.144C134.835 107.942 118.058 127.05 120.493 130.99C120.836 131.546 123.228 132.007 125.808 132.015C134.169 132.041 138.671 136.172 136.935 142.224C135.637 146.75 133.318 148.003 127.463 147.343C121.808 146.705 112.192 148.793 104.999 152.22C98.5655 155.286 86.9105 167.246 83.2105 174.58C76.7675 187.347 75.3675 199.911 79.1775 210.759L81.3755 217.019L79.1605 219.759C69.5925 231.593 66.5375 240.693 67.2155 255.347C67.5665 262.923 68.2605 266.824 69.9525 270.719C73.5035 278.896 74.3285 279.04 78.0145 272.124C88.2295 252.957 106.471 240.344 120.855 242.501C129.775 243.839 138.999 250.295 138.999 255.201C138.999 258.206 137.116 261.005 134.4 262.038C132.416 262.792 130.808 262.385 126.32 259.99C123.239 258.345 119.294 257 117.555 257C110.164 257 97.8175 266.539 93.0315 275.948C89.7065 282.482 85.1265 296.758 84.4605 302.66C82.5475 319.616 93.3945 339.878 109.251 348.972C115.731 352.688 116.806 352.724 117.548 349.25C117.87 347.738 119.049 343.855 120.167 340.621C121.838 335.791 121.959 334.594 120.85 333.912C108.602 326.378 103.159 316.054 104.253 302.43C105.126 291.554 110.845 285.625 116.246 289.999C118.276 291.643 118.499 292.699 118.499 300.662C118.499 308.059 118.875 310.155 120.802 313.517C123.683 318.541 128.222 321.701 133.842 322.595C138.744 323.374 143.999 327.234 143.999 330.054C143.999 331.086 142.71 333.409 141.134 335.215C134.756 342.526 133.499 346.442 133.499 359C133.499 369.186 133.779 371.07 135.952 375.484C138.029 379.705 146.703 389.678 147.522 388.787C147.668 388.629 146.51 384.675 144.949 380C140.717 367.321 141.404 356.144 147.149 344.214C154.915 328.085 174.668 318.351 197.977 319.168L207.455 319.5L212.238 307.5C219.256 289.895 222.557 280.224 221.804 279.472C221.439 279.106 219.195 280.139 216.819 281.767C209.925 286.49 204.897 288.723 198.183 290.044C190.617 291.532 177.259 290.813 171.123 288.587C168.717 287.714 163.992 287.008 160.623 287.017C155.644 287.031 153.565 287.588 149.499 290C143.543 293.533 142.103 293.656 138.634 290.927C135.307 288.31 135.014 282.995 138.042 280.174C146.132 272.637 159.067 270.283 174.056 273.62C192.056 277.628 203.466 275.186 214.316 265.004C220.558 259.146 227.656 248.872 226.619 247.194C226.31 246.694 223.877 246.027 221.213 245.712C214.272 244.89 206.309 241.033 200.249 235.558C195.646 231.399 194.999 230.34 194.999 226.964C194.999 224.119 195.579 222.707 197.222 221.557C200.646 219.158 203.417 219.672 208.669 223.682C213.38 227.278 222.924 231 227.433 231C231.733 231 232.91 228.542 243.716 197C251.95 172.968 255.311 162.401 255.646 159.496C255.954 156.818 255.496 156.23 251.412 154.063C244.716 150.511 237.596 141.985 233.888 133.079C231.25 126.743 230.743 124.236 230.762 117.642C230.787 108.783 231.999 105.657 236.059 103.975C242.504 101.305 246.789 106.351 246.389 116.14C245.949 126.906 250.735 135.716 259.622 140.498C262.419 142.003 263.439 142.181 263.759 141.219C265.225 136.822 274.663 118.952 279.39 111.625C282.475 106.843 284.999 102.599 284.999 102.193C284.999 101.787 283.64 99.8072 281.979 97.7912C277.407 92.2452 270.231 89.2292 258.499 87.9232C249.076 86.8742 238.926 84.7142 227.499 81.3272C221.176 79.4532 205.047 78.7752 198.509 80.1092ZM339.111 80.5172C321.29 85.5202 302.531 103.755 288.209 130C277.448 149.718 262.548 191.891 249.521 239.5C235.653 290.179 227.244 316.778 220.198 332.25C218.508 335.962 216.703 339 216.187 339C215.672 339 213.281 338.302 210.875 337.449C208.468 336.596 202.224 335.638 196.999 335.32C180.169 334.296 170.414 338.224 162.744 349.114C159.41 353.849 158.711 355.727 158.283 361.114C157.356 372.792 161.718 381.514 171.192 386.926C184.867 394.736 203.572 390.783 220.238 376.563L227.899 370.026L242.699 379.882C270.673 398.512 299.281 413.384 317.999 419.029C327.644 421.938 329.72 422.205 343.499 422.313C360.003 422.442 367.164 421.147 378.728 415.946C386.803 412.314 397.197 404.447 402.727 397.783C418.748 378.475 422.748 348.347 411.372 332.674C407.695 327.608 399.923 323.024 394.999 323.015C390.846 323.008 385.158 324.959 382.39 327.34L379.777 329.588L384.22 334.16C390.23 340.343 391.686 345.569 390.109 355.287C388.611 364.52 384.838 372.256 378.973 378.122C368.507 388.588 360.23 391.5 343.049 390.762C332.905 390.326 330.282 389.817 321.499 386.572C307.591 381.433 277.373 366.538 260.356 356.432C252.512 351.774 245.88 347.617 245.62 347.195C245.359 346.773 246.95 343.59 249.156 340.121C259.192 324.337 266.536 305.96 276.981 270.5C280.383 258.95 283.501 248.385 283.909 247.023C284.462 245.174 286.415 243.778 291.603 241.523C302.32 236.863 318.508 227.646 328.999 220.23C340.942 211.788 360.533 192.248 368.849 180.483C376.351 169.871 384.012 154.473 387.001 144C389.642 134.744 390.7 117.651 389.105 110C386.44 97.2172 379.147 87.5832 368.216 82.4072C361.041 79.0092 347.594 78.1362 339.111 80.5172ZM344.499 103.653C340.082 105.97 333.362 112.693 328.777 119.383C322.567 128.441 315.605 144.25 307.859 166.877C293.369 209.204 289.799 220.133 290.297 220.631C291.055 221.39 304.359 213.643 313.424 207.164C323.116 200.237 337.663 186.584 343.671 178.776C348.731 172.201 355.543 159.807 359.888 149.27C368.223 129.057 367.776 108.039 358.914 103.456C355.258 101.566 348.298 101.661 344.499 103.653ZM344.863 128.64C338.861 135.466 331.73 150.099 325.438 168.5L322.018 178.5L326.622 173.528C332.888 166.761 338.776 157.902 341.508 151.13C344.106 144.693 347.335 130.948 346.835 128.455C346.531 126.936 346.346 126.954 344.863 128.64ZM202.588 162.077C201.164 163.769 199.999 166.227 199.999 167.539C199.999 168.851 199.052 172.456 197.895 175.549C195.214 182.715 189.049 188.804 181.326 191.915C171.985 195.678 170.999 196.53 170.999 200.832C170.999 206.47 172.954 208.518 178.231 208.409C188.669 208.191 206.671 193.977 211.045 182.5C214.073 174.557 214.858 163.002 212.528 160.672C209.821 157.965 205.538 158.57 202.588 162.077ZM121.821 165.332C109.355 170.571 101.189 180.35 98.0125 193.846C95.9575 202.574 98.4125 212.608 104.58 220.695C107.696 224.78 112.734 225.274 115.96 221.811C118.394 219.199 118.653 213.788 116.433 211.945C109.163 205.911 111.058 191.385 120.129 183.621C128.032 176.856 137.548 176.469 146.734 182.54C153.046 186.713 156.129 186.921 158.926 183.365C161.94 179.534 161.508 176.735 157.249 172.499C148.305 163.603 133.204 160.549 121.821 165.332ZM133.399 198.765C125.309 204.167 132.991 224.52 147.156 235.21C153.869 240.277 166.176 246 170.357 246C173.294 246 176.999 241.803 176.999 238.476C176.999 234.914 174.004 232.197 167.136 229.53C155.288 224.93 148.461 217.872 145.343 207C144.476 203.975 143.074 200.713 142.227 199.75C140.676 197.985 135.441 197.401 133.399 198.765ZM180.454 358.455C177.739 361.169 177.163 366.061 179.344 367.872C181.577 369.724 186.392 370.241 190.678 369.086C195.485 367.792 205.999 361.099 205.999 359.333C205.999 357.45 199.388 356.012 190.704 356.006C183.756 356.001 182.641 356.267 180.454 358.455Z" fill="#101010"/>
</g>
<defs>
<linearGradient id="paint0_linear_391_3567" x1="410" y1="55.5" x2="94" y2="449" gradientUnits="userSpaceOnUse">
<stop stop-color="#B9CBEC"/>
<stop offset="1" stop-color="#E4D2D1"/>
</linearGradient>
<clipPath id="clip0_391_3567">
<rect width="512" height="512" fill="white"/>
</clipPath>
</defs>
</svg>
